<?xml version="1.0" standalone="no"?>
<!DOCTYPE svg PUBLIC "-//W3C//DTD SVG 20010904//EN"
 "http://www.w3.org/TR/2001/REC-SVG-20010904/DTD/svg10.dtd">
<svg version="1.0" xmlns="http://www.w3.org/2000/svg"
 width="512.000000pt" height="512.000000pt" viewBox="0 0 512.000000 512.000000"
 preserveAspectRatio="xMidYMid meet">
<metadata>
Created by potrace 1.14, written by Peter Selinger 2001-2017
</metadata>
<g transform="translate(0.000000,512.000000) scale(0.100000,-0.100000)"
fill="#000000" stroke="none">
<path d="M2355 4155 c-421 -66 -776 -292 -1012 -645 -110 -165 -203 -391 -228
-558 -3 -20 -9 -62 -14 -92 -10 -57 -7 -334 4 -405 25 -162 68 -293 150 -460
177 -357 485 -621 864 -744 51 -17 112 -33 134 -37 23 -3 44 -7 47 -9 29 -18
343 -27 450 -13 244 32 477 126 670 268 52 39 100 73 106 76 11 5 152 -134
451 -444 l118 -123 58 57 58 58 -123 124 c-68 69 -152 155 -188 192 -36 37
-107 110 -159 162 l-94 96 60 74 c76 93 119 161 176 273 42 85 100 239 111
295 2 14 9 48 15 75 6 28 13 64 17 80 3 17 7 104 9 195 4 226 -20 367 -97 568
-150 389 -457 700 -840 851 -80 32 -201 66 -266 76 -21 3 -49 8 -62 11 -49 12
-336 11 -415 -1z m415 -160 c335 -65 607 -222 801 -464 218 -269 316 -562 305
-905 -5 -137 -6 -143 -36 -272 -37 -160 -121 -340 -220 -473 -88 -119 -76
-119 -183 -7 l-92 96 -58 -57 -58 -56 96 -97 97 -97 -44 -35 c-57 -47 -169
-118 -244 -156 -59 -30 -264 -105 -264 -97 0 2 -15 -1 -32 -6 -95 -27 -382
-33 -503 -10 -534 102 -948 515 -1061 1061 -20 92 -26 366 -11 450 23 122 29
148 57 232 96 285 296 543 548 704 134 87 319 157 492 188 77 14 343 15 410 1z"/>
</g>
</svg>
